<?xml version="1.0" encoding="utf-8"?>
<!-- Generator: Adobe Illustrator 26.0.3, SVG Export Plug-In . SVG Version: 6.00 Build 0)  -->
<svg version="1.1" xmlns="http://www.w3.org/2000/svg" xmlns:xlink="http://www.w3.org/1999/xlink" x="0px" y="0px"
	 viewBox="0 0 48 48" style="enable-background:new 0 0 48 48;" xml:space="preserve">
<style type="text/css">
	.st0{display:none;}
	.st1{display:inline;}
	.st2{clip-path:url(#SVGID_00000164489225975001693130000014509974666216466829_);}
	.st3{fill:none;stroke:#040506;stroke-width:2;stroke-miterlimit:10;}
	.st4{clip-path:url(#SVGID_00000028290827834334471300000007479643446204490943_);}
	.st5{fill:#161615;}
	.st6{clip-path:url(#SVGID_00000019657531755141504890000018340922013049881269_);}
	.st7{clip-path:url(#SVGID_00000096773371232880818390000015209408695411404465_);}
	.st8{display:inline;fill:#161615;}
	.st9{clip-path:url(#SVGID_00000157287311218795622970000015715422663383361162_);}
	.st10{fill:#040505;}
	.st11{display:inline;fill:#040506;}
	.st12{clip-path:url(#SVGID_00000147200270694158372160000010922074399813212050_);}
	.st13{fill:#040506;}
	.st14{clip-path:url(#SVGID_00000029730883241106963920000001946226690682231980_);}
	.st15{fill:#0C0C0B;}
	.st16{clip-path:url(#SVGID_00000080889058087224142990000000631156306116974745_);}
	.st17{clip-path:url(#SVGID_00000059990392189063563060000010205440900357449646_);}
	.st18{fill:#050506;}
	.st19{display:inline;fill:#050506;}
	.st20{clip-path:url(#SVGID_00000085250791896508027990000000719388962187397822_);}
	.st21{clip-path:url(#SVGID_00000165232761098163101610000011809849639765560463_);}
	.st22{clip-path:url(#SVGID_00000087404910951515068220000013506533169820873358_);}
	.st23{clip-path:url(#SVGID_00000176745871722158888850000001550202457623432072_);}
	.st24{clip-path:url(#SVGID_00000065793025011272567290000005394900304488068771_);}
	.st25{clip-path:url(#SVGID_00000111164657544772602140000010357632357168207773_);}
	.st26{clip-path:url(#SVGID_00000012441738889267254320000006642135283928142265_);}
	.st27{clip-path:url(#SVGID_00000054964539936381978200000016525167836120630427_);}
	.st28{clip-path:url(#SVGID_00000161632205330956440430000011358648502742407835_);}
	.st29{fill-rule:evenodd;clip-rule:evenodd;fill:#171716;}
	.st30{fill:#171716;}
	.st31{clip-path:url(#SVGID_00000062160865968766435410000010968960434153681550_);}
	.st32{clip-path:url(#SVGID_00000077289774704497201030000006582566982140972689_);}
	.st33{display:inline;fill:#040505;}
	.st34{clip-path:url(#SVGID_00000077305082735113880820000005900798044718748830_);}
	.st35{clip-path:url(#SVGID_00000044179983211739548510000011175163865629550493_);}
	.st36{clip-path:url(#SVGID_00000165947007641218153450000011226210379448135068_);}
	.st37{display:inline;fill:#171716;}
	.st38{clip-path:url(#SVGID_00000179646440961610680200000014639853057364906149_);}
	.st39{clip-path:url(#SVGID_00000069398058591841801700000007907376818155136135_);}
	.st40{clip-path:url(#SVGID_00000115507697648445498450000000218114803216861614_);}
	.st41{clip-path:url(#SVGID_00000023259664586440858430000013746782931099902112_);}
	.st42{clip-path:url(#SVGID_00000078725974907237217470000005648746293115824773_);}
	.st43{clip-path:url(#SVGID_00000021112833932689505390000011664693626797354409_);}
	.st44{clip-path:url(#SVGID_00000154398450089126751050000002581350186239828398_);}
	.st45{clip-path:url(#SVGID_00000014623238932452314600000008271347485050780806_);}
	.st46{clip-path:url(#SVGID_00000178192573272966765440000018146726428046059451_);}
	.st47{clip-path:url(#SVGID_00000053511672801511005180000008718244138980379786_);}
	.st48{clip-path:url(#SVGID_00000065056201269578132540000006077563813749874595_);}
	.st49{clip-path:url(#SVGID_00000081623510620291819890000002553725151480877752_);}
	.st50{fill:#171816;}
	.st51{clip-path:url(#SVGID_00000177450454210432748770000018043904259986709918_);}
</style>
<g id="settings" class="st0">
	<g class="st1">
		<defs>
			<rect id="SVGID_1_" x="5" y="5" width="38" height="38"/>
		</defs>
		<clipPath id="SVGID_00000121273113529383908370000004776360319230772890_">
			<use xlink:href="#SVGID_1_"  style="overflow:visible;"/>
		</clipPath>
		<g id="Gruppe_210" style="clip-path:url(#SVGID_00000121273113529383908370000004776360319230772890_);">
			<circle id="Ellipse_6" class="st3" cx="24" cy="24" r="7"/>
			<path id="Pfad_426" class="st3" d="M36.2,17.8l2.3-4.7l-3.6-3.6l-4.7,2.3c-0.6-0.3-1.3-0.6-2-0.8l-1.7-5h-5.1l-1.7,5
				c-0.7,0.2-1.4,0.5-2,0.8l-4.7-2.3l-3.6,3.6l2.3,4.7c-0.3,0.6-0.6,1.3-0.8,2l-5,1.7v5.1l5,1.7c0.2,0.7,0.5,1.4,0.8,2l-2.3,4.7
				l3.6,3.6l4.7-2.3c0.6,0.3,1.3,0.6,2,0.8l1.7,5h5.1l1.7-5c0.7-0.2,1.4-0.5,2-0.8l4.7,2.3l3.6-3.6l-2.3-4.7c0.3-0.6,0.6-1.3,0.8-2
				l5-1.7v-5.1l-5-1.7C36.8,19.1,36.5,18.4,36.2,17.8z"/>
			<circle id="Ellipse_7" class="st3" cx="24" cy="24" r="7"/>
			<path id="Pfad_427" class="st3" d="M36.2,17.8l2.3-4.7l-3.6-3.6l-4.7,2.3c-0.6-0.3-1.3-0.6-2-0.8l-1.7-5h-5.1l-1.7,5
				c-0.7,0.2-1.4,0.5-2,0.8l-4.7-2.3l-3.6,3.6l2.3,4.7c-0.3,0.6-0.6,1.3-0.8,2l-5,1.7v5.1l5,1.7c0.2,0.7,0.5,1.4,0.8,2l-2.3,4.7
				l3.6,3.6l4.7-2.3c0.6,0.3,1.3,0.6,2,0.8l1.7,5h5.1l1.7-5c0.7-0.2,1.4-0.5,2-0.8l4.7,2.3l3.6-3.6l-2.3-4.7c0.3-0.6,0.6-1.3,0.8-2
				l5-1.7v-5.1l-5-1.7C36.8,19.1,36.5,18.4,36.2,17.8z"/>
			<circle id="Ellipse_8" class="st3" cx="24" cy="24" r="7"/>
			<path id="Pfad_428" class="st3" d="M36.2,17.8l2.3-4.7l-3.6-3.6l-4.7,2.3c-0.6-0.3-1.3-0.6-2-0.8l-1.7-5h-5.1l-1.7,5
				c-0.7,0.2-1.4,0.5-2,0.8l-4.7-2.3l-3.6,3.6l2.3,4.7c-0.3,0.6-0.6,1.3-0.8,2l-5,1.7v5.1l5,1.7c0.2,0.7,0.5,1.4,0.8,2l-2.3,4.7
				l3.6,3.6l4.7-2.3c0.6,0.3,1.3,0.6,2,0.8l1.7,5h5.1l1.7-5c0.7-0.2,1.4-0.5,2-0.8l4.7,2.3l3.6-3.6l-2.3-4.7c0.3-0.6,0.6-1.3,0.8-2
				l5-1.7v-5.1l-5-1.7C36.8,19.1,36.5,18.4,36.2,17.8z"/>
			<circle id="Ellipse_9" class="st3" cx="24" cy="24" r="7"/>
			<path id="Pfad_429" class="st3" d="M36.2,17.8l2.3-4.7l-3.6-3.6l-4.7,2.3c-0.6-0.3-1.3-0.6-2-0.8l-1.7-5h-5.1l-1.7,5
				c-0.7,0.2-1.4,0.5-2,0.8l-4.7-2.3l-3.6,3.6l2.3,4.7c-0.3,0.6-0.6,1.3-0.8,2l-5,1.7v5.1l5,1.7c0.2,0.7,0.5,1.4,0.8,2l-2.3,4.7
				l3.6,3.6l4.7-2.3c0.6,0.3,1.3,0.6,2,0.8l1.7,5h5.1l1.7-5c0.7-0.2,1.4-0.5,2-0.8l4.7,2.3l3.6-3.6l-2.3-4.7c0.3-0.6,0.6-1.3,0.8-2
				l5-1.7v-5.1l-5-1.7C36.8,19.1,36.5,18.4,36.2,17.8z"/>
		</g>
	</g>
</g>
<g id="Ebene_50" class="st0">
	<g id="Gruppe_273" transform="translate(0 0)" class="st1">
		<g>
			<defs>
				<rect id="SVGID_00000017499521469695089840000011780063316581184938_" x="4" y="7" width="40" height="33.9"/>
			</defs>
			<clipPath id="SVGID_00000005949943412562165390000012157025252856022674_">
				<use xlink:href="#SVGID_00000017499521469695089840000011780063316581184938_"  style="overflow:visible;"/>
			</clipPath>
			<g id="Gruppe_212" style="clip-path:url(#SVGID_00000005949943412562165390000012157025252856022674_);">
				<path id="Pfad_430" class="st5" d="M42,24c0,5.8-2.3,11.4-6.5,15.5L37,41c9.4-9.3,9.4-24.5,0-33.9c0,0,0,0,0,0l-1.4,1.4
					C39.7,12.6,42,18.2,42,24"/>
				<path id="Pfad_431" class="st5" d="M36,24c0,4.2-1.8,8.2-4.9,11.1l1.4,1.4c6.9-6.3,7.4-17,1.1-23.9c-0.3-0.4-0.7-0.7-1.1-1.1
					l-1.4,1.4C34.2,15.8,36,19.8,36,24"/>
				<path id="Pfad_432" class="st5" d="M30,24c0,2.6-1.3,5.1-3.4,6.6L28,32c4.4-3.3,5.3-9.5,2-13.9c-0.6-0.8-1.3-1.5-2-2l-1.4,1.4
					C28.7,18.9,30,21.4,30,24"/>
				<path id="Pfad_433" class="st5" d="M24,38.2L14.6,30H4V18h9.7L24,10V38.2z M6,28h9.4l6.6,5.8V14l-7.7,6H6V28z"/>
			</g>
		</g>
	</g>
</g>
<g id="Ebene_47" class="st0">
	<g id="Gruppe_274" transform="translate(0 0)" class="st1">
		<g>
			<defs>
				<rect id="SVGID_00000003800545786197565050000004863029394383446417_" x="4" y="10" width="34" height="28"/>
			</defs>
			<clipPath id="SVGID_00000098210361961860303010000011119923855849766793_">
				<use xlink:href="#SVGID_00000003800545786197565050000004863029394383446417_"  style="overflow:visible;"/>
			</clipPath>
			<g id="Gruppe_214" style="clip-path:url(#SVGID_00000098210361961860303010000011119923855849766793_);">
				<path id="Pfad_434" class="st5" d="M36,24c0,4.2-1.8,8.2-4.9,11.1l1.4,1.4c6.9-6.3,7.4-17,1.1-23.9c-0.3-0.4-0.7-0.7-1.1-1.1
					l-1.4,1.4C34.2,15.8,36,19.8,36,24"/>
				<path id="Pfad_435" class="st5" d="M30,24c0,2.6-1.3,5.1-3.4,6.6L28,32c4.4-3.3,5.3-9.5,2-13.9c-0.6-0.8-1.3-1.5-2-2l-1.4,1.4
					C28.7,19,30,21.4,30,24"/>
				<path id="Pfad_436" class="st5" d="M24,38.2L14.6,30H4V18h9.7L24,10V38.2z M6,28h9.4l6.6,5.8V14l-7.7,6H6V28z"/>
			</g>
		</g>
	</g>
</g>
<g id="Ebene_48" class="st0">
	<g id="Gruppe_275_00000166670652363676707690000004910385031356435110_" transform="translate(0 0)" class="st1">
		<g>
			<defs>
				<rect id="SVGID_00000088095008536664337240000009578175785358468027_" x="4" y="10" width="28" height="28.2"/>
			</defs>
			<clipPath id="SVGID_00000080179984001210144590000006703777536323829167_">
				<use xlink:href="#SVGID_00000088095008536664337240000009578175785358468027_"  style="overflow:visible;"/>
			</clipPath>
			<g id="Gruppe_216" style="clip-path:url(#SVGID_00000080179984001210144590000006703777536323829167_);">
				<path id="Pfad_437" class="st5" d="M30,24c0,2.6-1.3,5.1-3.4,6.6L28,32c4.4-3.3,5.3-9.5,2-13.9c-0.6-0.8-1.3-1.5-2-2l-1.4,1.4
					C28.7,19,30,21.4,30,24"/>
				<path id="Pfad_438" class="st5" d="M24,38.2L14.6,30H4V18h9.7L24,10V38.2z M6,28h9.4l6.6,5.8V14.1l-7.7,6H6V28z"/>
			</g>
		</g>
	</g>
</g>
<g id="Ebene_49" class="st0">
	<path id="Pfad_439" class="st8" d="M33.8,22.7l-5.3-5.3l-1.4,1.4l5.3,5.3l-5.3,5.3l1.4,1.4l5.3-5.3l5.3,5.3l1.4-1.4l-5.3-5.3
		l5.3-5.3l-1.4-1.4L33.8,22.7z"/>
	<path id="Pfad_440" class="st8" d="M6,20h8.3l7.7-6v19.8L15.4,28H6V20z M24,10l-10.3,8H4v12h10.6l9.4,8.2V10z"/>
</g>
<g id="Ebene_2" class="st0">
	<g id="Gruppe_279" transform="translate(0 0)" class="st1">
		<g>
			<defs>
				<rect id="SVGID_00000041279173533563014640000007109155377138998950_" x="4" y="6.6" width="40" height="34.9"/>
			</defs>
			<clipPath id="SVGID_00000183219090322063021360000003518920553441351847_">
				<use xlink:href="#SVGID_00000041279173533563014640000007109155377138998950_"  style="overflow:visible;"/>
			</clipPath>
			<g id="Gruppe_224" style="clip-path:url(#SVGID_00000183219090322063021360000003518920553441351847_);">
				<path id="Pfad_443" class="st10" d="M44,36.7V12.6c-4.1,0-8.1,0.4-12.1,1.2L24,15.3l-4.8-0.9l-0.4,2l4.2,0.8v22.1l-6.9-1.4
					c-3.3-0.6-6.7-1-10.1-1.1V14.6h1.1c0.6,0,1.2,0,1.8,0.1l0.1-2c-0.7,0-1.3-0.1-2-0.1H4v2l0,0v24.1c3.9,0,7.8,0.4,11.7,1.1
					l8.3,1.6l11.4-2.2c1.8-0.4,3.7-0.5,5.5-0.5H44V36.7z M35,37.3l-10,1.9V17.1l7.3-1.4c3.2-0.6,6.4-1,9.7-1.1v22.1h-1.1
					C38.9,36.7,36.9,36.9,35,37.3"/>
				<rect id="Rechteck_175" x="27" y="25.6" class="st10" width="13" height="2"/>
				<rect id="Rechteck_176" x="27" y="29.6" class="st10" width="13" height="2"/>
				<rect id="Rechteck_177" x="27" y="21.6" class="st10" width="13" height="2"/>
				<path id="Pfad_444" class="st10" d="M14,10.6c1.1,0,2-0.9,2-2s-0.9-2-2-2s-2,0.9-2,2S12.9,10.6,14,10.6"/>
				<path id="Pfad_445" class="st10" d="M15,24.6h2v-2h-2v-10h-4v2h2v8h-2v2H15z"/>
			</g>
		</g>
	</g>
</g>
<g id="Ebene_51" class="st0">
	<path id="Pfad_446" class="st11" d="M9.3,19h30v20h-30V19z M33.3,15v-3h6v5h-30v-5h6v3h2v-3h14v3H33.3z M31.3,7v3h-14V7h-2v3h-8v31
		h34V10h-8V7H31.3z"/>
	<g id="Gruppe_227" class="st1">
		<g>
			<defs>
				<rect id="SVGID_00000107571711860421001480000015206134468345822129_" x="7.3" y="7" width="34" height="34"/>
			</defs>
			<clipPath id="SVGID_00000093887650860785020030000004672060490139809962_">
				<use xlink:href="#SVGID_00000107571711860421001480000015206134468345822129_"  style="overflow:visible;"/>
			</clipPath>
			<g id="Gruppe_226" style="clip-path:url(#SVGID_00000093887650860785020030000004672060490139809962_);">
				<path id="Pfad_447" class="st13" d="M24.3,21c-4.4,0-8,3.6-8,8s3.6,8,8,8s8-3.6,8-8C32.3,24.6,28.7,21,24.3,21 M24.3,35
					c-3.3,0-6-2.7-6-6s2.7-6,6-6s6,2.7,6,6C30.3,32.3,27.6,35,24.3,35"/>
				<path id="Pfad_448" class="st13" d="M23.3,28h-3v2h5v-5h-2V28z"/>
			</g>
		</g>
	</g>
</g>
<g id="Ebene_3">
	<path id="Pfad_544" class="st13" d="M28.8,9.3L14.1,24l14.7,14.7l1.4-1.4L17,24l13.3-13.3L28.8,9.3z"/>
</g>
<g id="Ebene_4" class="st0">
	<g class="st1">
		<defs>
			<rect id="SVGID_00000159446620560075873750000006917703775561234066_" x="4.8" y="7.1" width="39.5" height="36"/>
		</defs>
		<clipPath id="SVGID_00000178896289340290348870000016406191814961716406_">
			<use xlink:href="#SVGID_00000159446620560075873750000006917703775561234066_"  style="overflow:visible;"/>
		</clipPath>
		<g id="Gruppe_229" style="clip-path:url(#SVGID_00000178896289340290348870000016406191814961716406_);">
			<path id="Pfad_450" class="st15" d="M24.5,10.9c-5.6,0-10.2,4.6-10.2,10.2s4.6,10.2,10.2,10.2s10.2-4.6,10.2-10.2c0,0,0,0,0,0
				C34.7,15.5,30.2,10.9,24.5,10.9 M18.4,26.4H20c0.3,0.7,0.7,1.5,1.2,2.1C20.1,28.1,19.2,27.3,18.4,26.4 M32.7,20.1h-3
				c-0.1-0.9-0.2-1.9-0.5-2.8h2.7C32.2,18.2,32.5,19.1,32.7,20.1 M24.3,29.1c-0.8-0.8-1.5-1.7-2-2.7h4.1
				C25.8,27.4,25.1,28.3,24.3,29.1 M21.4,24.4c-0.2-0.8-0.4-1.5-0.5-2.3h6.6c-0.1,0.8-0.2,1.6-0.4,2.3H21.4z M21,20.1
				c0.1-1,0.3-1.9,0.6-2.8H27c0.3,0.9,0.5,1.8,0.6,2.8H21z M24.3,13.1c0.7,0.7,1.3,1.4,1.8,2.2h-3.5C23,14.5,23.6,13.7,24.3,13.1
				 M28.3,15.3c-0.3-0.7-0.7-1.3-1.1-1.9c1.2,0.4,2.2,1.1,3.1,1.9H28.3z M20.3,15.3h-1.5c0.7-0.7,1.5-1.3,2.4-1.7
				C20.9,14.2,20.6,14.7,20.3,15.3 M19.5,17.3c-0.3,0.9-0.4,1.9-0.5,2.8h-2.5c0.1-1,0.4-1.9,0.9-2.8H19.5z M16.4,22.1H19
				c0.1,0.8,0.2,1.6,0.4,2.3h-2.3C16.8,23.7,16.5,22.9,16.4,22.1 M28.6,26.4h2.2c-0.9,1.1-2.2,1.9-3.6,2.4
				C27.7,28.1,28.2,27.3,28.6,26.4 M29.2,24.4c0.2-0.8,0.3-1.5,0.4-2.3h3c-0.1,0.8-0.3,1.6-0.6,2.3H29.2z"/>
			<path id="Pfad_451" class="st15" d="M38.7,7.1H10.4c-3.1,0-5.5,2.5-5.5,5.6c0,0,0,0,0,0v30.4l8.1-8.1h25.8c3.1,0,5.5-2.5,5.5-5.6
				l0,0V12.6C44.3,9.6,41.8,7.1,38.7,7.1 M42.3,29.4c0,2-1.6,3.5-3.5,3.5H12.1l-0.6,0.6l-4.7,4.7V12.6c0-2,1.6-3.5,3.5-3.6h28.4
				c2,0,3.5,1.6,3.5,3.6V29.4z"/>
		</g>
	</g>
</g>
<g id="Ebene_5" class="st0">
	<g class="st1">
		<defs>
			<rect id="SVGID_00000061446067365013218560000009613075434105735585_" x="5" y="5" width="38" height="38"/>
		</defs>
		<clipPath id="SVGID_00000007401064892295229060000016043494571690165139_">
			<use xlink:href="#SVGID_00000061446067365013218560000009613075434105735585_"  style="overflow:visible;"/>
		</clipPath>
		<g id="Gruppe_231" style="clip-path:url(#SVGID_00000007401064892295229060000016043494571690165139_);">
			<path id="Pfad_452" class="st5" d="M24,5C13.5,5,5,13.5,5,24s8.5,19,19,19s19-8.5,19-19C43,13.5,34.5,5,24,5 M7,24L7,24 M25,40.9
				V37h-2v3.9C14.4,40.4,7.6,33.6,7.1,25H11v-2H7.1C7.6,14.4,14.4,7.6,23,7.1V11h2V7.1c8.6,0.5,15.4,7.4,15.9,15.9H37v2h3.9
				C40.4,33.6,33.6,40.4,25,40.9"/>
			<path id="Pfad_453" class="st5" d="M23,23h-6v2h8V14h-2V23z"/>
		</g>
	</g>
</g>
<g id="Ebene_6" class="st0">
	<g class="st1">
		<defs>
			<rect id="SVGID_00000018937245955047535820000008072090193957780379_" x="9.2" y="4" width="29.7" height="40"/>
		</defs>
		<clipPath id="SVGID_00000070807912644367205410000010033302992041120164_">
			<use xlink:href="#SVGID_00000018937245955047535820000008072090193957780379_"  style="overflow:visible;"/>
		</clipPath>
		<g id="Gruppe_219" style="clip-path:url(#SVGID_00000070807912644367205410000010033302992041120164_);">
			<path id="Pfad_441" class="st18" d="M14.5,24.6c0.4,1.4,1,2.8,1.9,4c0.4,0.6,0.8,1.2,1.1,1.8c0.7,1.4,1.1,3,1.2,4.5v1l10.8,0v-1
				c0-1.6,0.4-3.2,1.2-4.6c0.3-0.6,0.7-1.2,1.1-1.8c1.4-2,2.2-4.3,2.3-6.7c0-5.5-4.4-9.9-9.9-9.9s-9.9,4.4-9.9,9.9c0,0,0,0,0,0
				C14.1,22.8,14.2,23.8,14.5,24.6 M24,14c4.4,0,7.9,3.5,7.9,7.9c0,0.7-0.1,1.5-0.3,2.2c-0.3,1.2-0.9,2.4-1.6,3.4
				c-0.5,0.7-0.9,1.4-1.2,2.1c-0.7,1.4-1.1,2.9-1.3,4.4l-6.9,0c-0.2-1.5-0.6-3-1.3-4.4c-0.3-0.7-0.8-1.4-1.2-2.1
				c-0.7-1-1.3-2.2-1.6-3.4c-0.2-0.7-0.3-1.5-0.3-2.2C16.1,17.5,19.6,14,24,14"/>
			<rect id="Rechteck_166" x="19" y="38" class="st18" width="10" height="2"/>
			<rect id="Rechteck_167" x="20" y="42" class="st18" width="8" height="2"/>
			
				<rect id="Rechteck_168" x="10.6" y="9.1" transform="matrix(0.7071 -0.7071 0.7071 0.7071 -4.8159 11.6248)" class="st18" width="2" height="5"/>
			<rect id="Rechteck_169" x="23" y="4" class="st18" width="2" height="5"/>
			
				<rect id="Rechteck_170" x="33.9" y="10.6" transform="matrix(0.7069 -0.7074 0.7074 0.7069 2.4394 29.1372)" class="st18" width="5" height="2"/>
		</g>
	</g>
</g>
<g id="Ebene_7" class="st0">
	<rect id="Rechteck_172" x="19" y="38" class="st19" width="10" height="2"/>
	<rect id="Rechteck_173" x="20" y="42" class="st19" width="8" height="2"/>
	<g id="Gruppe_222" class="st1">
		<g>
			<defs>
				<rect id="SVGID_00000025432896721584998510000000461733400429807800_" x="6.3" y="6.3" width="35.4" height="37.7"/>
			</defs>
			<clipPath id="SVGID_00000096757267218807603190000008786822662896745662_">
				<use xlink:href="#SVGID_00000025432896721584998510000000461733400429807800_"  style="overflow:visible;"/>
			</clipPath>
			<g id="Gruppe_221" style="clip-path:url(#SVGID_00000096757267218807603190000008786822662896745662_);">
				<path id="Pfad_442" class="st18" d="M41.7,7.7l-1.4-1.4l-9,9c-3.7-4.1-9.9-4.4-14-0.7c-2.1,1.9-3.3,4.5-3.3,7.3
					c0,0.9,0.1,1.8,0.4,2.7c0.4,1.4,1,2.8,1.9,4c0.2,0.3,0.4,0.7,0.6,1L6.3,40.3l1.4,1.4l10.2-10.2c0.4,1.1,0.7,2.3,0.7,3.4v1
					l10.8,0v-1c0-1.6,0.4-3.2,1.2-4.6c0.3-0.6,0.7-1.2,1.1-1.8c1.4-2,2.2-4.3,2.3-6.7c0-1.8-0.5-3.5-1.4-5L41.7,7.7z M18,27.5
					c-0.7-1-1.3-2.2-1.6-3.4c-0.2-0.7-0.3-1.5-0.3-2.2c0-4.4,3.5-7.9,7.9-7.9c2.3,0,4.4,1,5.9,2.7L18.4,28.1
					C18.3,27.9,18.2,27.7,18,27.5 M31.9,21.9c0,0.7-0.1,1.5-0.3,2.2c-0.3,1.2-0.9,2.4-1.6,3.4c-0.5,0.7-0.9,1.4-1.2,2.1
					c-0.7,1.4-1.1,2.9-1.3,4.4l-6.9,0c-0.2-1.4-0.5-2.7-1.1-4l11.6-11.6C31.6,19.5,31.9,20.7,31.9,21.9"/>
			</g>
		</g>
	</g>
</g>
<g id="Ebene_8" class="st0">
	<g class="st1">
		<defs>
			<rect id="SVGID_00000165927439954720821090000000769040895824313263_" x="12" y="8.5" width="23.9" height="31"/>
		</defs>
		<clipPath id="SVGID_00000129918847371815846550000007253935260761463184_">
			<use xlink:href="#SVGID_00000165927439954720821090000000769040895824313263_"  style="overflow:visible;"/>
		</clipPath>
		<g id="Gruppe_235" style="clip-path:url(#SVGID_00000129918847371815846550000007253935260761463184_);">
			<path id="Pfad_455" class="st5" d="M27.6,39.5C19,39.5,12,32.6,12,24c0-8.6,6.9-15.5,15.5-15.5c2.2,0,4.4,0.5,6.4,1.4l2,0.9
				l-2,0.9c-6.8,3.1-9.8,11.1-6.8,17.9c1.4,3,3.8,5.4,6.8,6.8l2,0.9l-2,0.9C31.9,39,29.8,39.5,27.6,39.5 M27.6,10.5
				c-7.5-0.1-13.6,5.9-13.6,13.4c-0.1,7.5,5.9,13.6,13.4,13.6c0.1,0,0.2,0,0.2,0c1.2,0,2.4-0.2,3.6-0.5c-7.2-4.6-9.3-14.2-4.7-21.4
				c1.2-1.9,2.8-3.5,4.7-4.7C30,10.6,28.8,10.5,27.6,10.5"/>
		</g>
	</g>
</g>
<g id="Ebene_9" class="st0">
	<g id="Gruppe_435" transform="translate(-81.879 -898)" class="st1">
		<path id="Pfad_793" class="st5" d="M100.5,941.8c0.3,0.1,0.5,0.1,0.8,0c0.8-0.2,1.4-0.8,1.6-1.6c0.1-0.3,0.1-0.5,0-0.8
			c-0.2-1.1-1.3-1.8-2.4-1.6c-1.1,0.2-1.8,1.3-1.6,2.4C99.1,941,99.7,941.6,100.5,941.8"/>
		<path id="Pfad_794" class="st5" d="M90.5,941.8c0.3,0.1,0.5,0.1,0.8,0c0.8-0.2,1.4-0.8,1.6-1.6c0.1-0.3,0.1-0.5,0-0.8
			c-0.2-1.1-1.3-1.8-2.4-1.6c-1.1,0.2-1.8,1.3-1.6,2.4C89.1,941,89.7,941.6,90.5,941.8"/>
		<path id="Pfad_795" class="st5" d="M110.5,941.8c0.3,0.1,0.5,0.1,0.8,0c0.8-0.2,1.4-0.8,1.6-1.6c0.1-0.3,0.1-0.5,0-0.8
			c-0.2-1.1-1.3-1.8-2.4-1.6c-1.1,0.2-1.8,1.3-1.6,2.4C109.1,941,109.7,941.6,110.5,941.8"/>
		<path id="Pfad_796" class="st5" d="M120.5,941.8c0.3,0.1,0.5,0.1,0.8,0c0.8-0.2,1.4-0.8,1.6-1.6c0.1-0.3,0.1-0.5,0-0.8
			c-0.2-1.1-1.3-1.8-2.4-1.6c-1.1,0.2-1.8,1.3-1.6,2.4C119.1,941,119.7,941.6,120.5,941.8"/>
		<path id="Pfad_797" class="st5" d="M95.5,936.4c0.3,0.1,0.5,0.1,0.8,0c0.8-0.2,1.4-0.8,1.6-1.6c0.1-0.3,0.1-0.5,0-0.8
			c-0.2-1.1-1.3-1.8-2.4-1.6c-1.1,0.2-1.8,1.3-1.6,2.4C94.1,935.6,94.7,936.3,95.5,936.4"/>
		<path id="Pfad_798" class="st5" d="M105.5,936.4c0.3,0.1,0.5,0.1,0.8,0c0.8-0.2,1.4-0.8,1.6-1.6c0.1-0.3,0.1-0.5,0-0.8
			c-0.2-1.1-1.3-1.8-2.4-1.6c-1.1,0.2-1.8,1.3-1.6,2.4C104.1,935.6,104.7,936.3,105.5,936.4"/>
		<path id="Pfad_799" class="st5" d="M115.5,936.4c0.3,0.1,0.5,0.1,0.8,0c0.8-0.2,1.4-0.8,1.6-1.6c0.1-0.3,0.1-0.5,0-0.8
			c-0.2-1.1-1.3-1.8-2.4-1.6c-1.1,0.2-1.8,1.3-1.6,2.4C114.1,935.6,114.7,936.3,115.5,936.4"/>
		<path id="Pfad_800" class="st5" d="M122.9,923.2v-8h-12v-4h-2v-9h-6v9h-2v4h-12v11h34V923.2z M104.9,904.2h2v7h-2V904.2z
			 M102.9,913.2h6v2h-6V913.2z M90.9,917.2h30v4h-30V917.2z M90.9,923.2h30v1h-30V923.2z"/>
		<rect id="Rechteck_314" x="86.9" y="928.2" class="st5" width="38" height="2"/>
	</g>
</g>
<g id="Ebene_10" class="st0">
	<path id="Pfad_457" class="st11" d="M17,5.3v8.6l-9.7,9.7L8.7,25L19,14.8V5.3H17z"/>
	<g id="Gruppe_240" class="st1">
		<g>
			<defs>
				<rect id="SVGID_00000070120914927070802320000017007318838705293747_" x="7.3" y="5.3" width="33.4" height="37.3"/>
			</defs>
			<clipPath id="SVGID_00000075855744635986625810000011352549056614901904_">
				<use xlink:href="#SVGID_00000070120914927070802320000017007318838705293747_"  style="overflow:visible;"/>
			</clipPath>
			<g id="Gruppe_239" style="clip-path:url(#SVGID_00000075855744635986625810000011352549056614901904_);">
				<path id="Pfad_458" class="st18" d="M33.4,42.7H14.7l0.7-1.5c1.7-3.4,2.7-7.1,2.8-10.9h-6.7L24,17.9l12.4,12.4h-6.7
					c-0.1,3.8,0.9,7.6,2.8,10.8L33.4,42.7z M17.9,40.7H30c-1.6-3.4-2.4-7.1-2.3-10.8l0.1-1.6h3.8L24,20.7l-7.6,7.6h3.9l0,1.7
					C20.2,33.7,19.4,37.3,17.9,40.7"/>
				<path id="Pfad_459" class="st13" d="M39.3,25L29,14.8V5.3h2v8.6l9.7,9.7L39.3,25z"/>
			</g>
		</g>
	</g>
</g>
<g id="Ebene_11" class="st0">
	<path id="Pfad_460" class="st8" d="M24,11L40.5,39h-33L24,11z M24,7L4,41h40L24,7z"/>
	<g id="Gruppe_243" class="st1">
		<g>
			<defs>
				<rect id="SVGID_00000031918315329504832630000009325448881846823818_" x="4" y="7" width="40" height="34"/>
			</defs>
			<clipPath id="SVGID_00000071557657062538414040000016943682749529765782_">
				<use xlink:href="#SVGID_00000031918315329504832630000009325448881846823818_"  style="overflow:visible;"/>
			</clipPath>
			<g id="Gruppe_242" style="clip-path:url(#SVGID_00000071557657062538414040000016943682749529765782_);">
				<path id="Pfad_461" class="st10" d="M24,32.5c-1.1,0-2,0.9-2,2c0,1.1,0.9,2,2,2s2-0.9,2-2C26,33.4,25.1,32.5,24,32.5"/>
				<rect id="Rechteck_204" x="23" y="17.5" class="st10" width="2" height="13"/>
			</g>
		</g>
	</g>
</g>
<g id="Ebene_12" class="st0">
	<g class="st1">
		<defs>
			<rect id="SVGID_00000094609955109423108820000011382674783370913155_" x="6" y="6" width="36" height="36"/>
		</defs>
		<clipPath id="SVGID_00000159444795919368840220000009085224886848028815_">
			<use xlink:href="#SVGID_00000094609955109423108820000011382674783370913155_"  style="overflow:visible;"/>
		</clipPath>
		<g id="Gruppe_245" style="clip-path:url(#SVGID_00000159444795919368840220000009085224886848028815_);">
			<path id="Pfad_462" class="st10" d="M24,30.1c-1.1,0-2,0.9-2,2c0,1.1,0.9,2,2,2s2-0.9,2-2C26,31,25.1,30.1,24,30.1"/>
			<rect id="Rechteck_206" x="23" y="13.4" class="st10" width="2" height="12.5"/>
			<path id="Pfad_463" class="st18" d="M31.5,42H16.5L6,31.5V16.5L16.5,6h14.9L42,16.5v14.9L31.5,42z M17.4,40h13.3l9.4-9.4V17.4
				L30.6,8H17.4L8,17.4v13.3L17.4,40z"/>
		</g>
	</g>
</g>
<g id="Ebene_13" class="st0">
	<path id="Pfad_464" class="st19" d="M30.6,16L24,22.6L17.4,16L16,17.4l6.6,6.6L16,30.6l1.4,1.4l6.6-6.6l6.6,6.6l1.4-1.4L25.4,24
		l6.6-6.6L30.6,16z"/>
	<path id="Pfad_465" class="st19" d="M8,30.6V17.4L17.4,8h13.3l9.4,9.4v13.3L30.6,40H17.4L8,30.6z M16.5,6L6,16.5v14.9L16.5,42h14.9
		L42,31.5V16.5L31.5,6H16.5z"/>
</g>
<g id="Ebene_16" class="st0">
	<path id="Pfad_545" class="st8" d="M11,16.2l13-7l13,7v22.9h-8v-14H19v14h-8V16.2z M24,6.9L9,15v26.1h12v-14h6v14h12V15L24,6.9z"/>
</g>
<g id="Ebene_14" class="st0">
	<path id="Pfad_546" class="st8" d="M13.6,12.5l19.1,12.2L13.6,36.8V12.5z M11.6,8.8v31.6l24.9-15.8L11.6,8.8z"/>
</g>
<g id="Ebene_15" class="st0">
	<rect id="Rechteck_208" x="17.1" y="10.7" class="st8" width="2" height="28"/>
	<rect id="Rechteck_209" x="27.1" y="10.7" class="st8" width="2" height="28"/>
</g>
<g id="Ebene_17" class="st0">
	<rect id="Rechteck_248" x="29.7" y="8" class="st8" width="2" height="32"/>
	<rect id="Rechteck_249" x="38.5" y="8" class="st8" width="2" height="32"/>
	<path id="Pfad_542" class="st8" d="M9.6,12.4L21.2,24L9.6,35.6V12.4z M7.6,7.6v32.8L24,24L7.6,7.6z"/>
</g>
<g id="Ebene_20" class="st0">
	<g id="Gruppe_291" transform="translate(0 0)" class="st1">
		<g>
			<defs>
				<rect id="SVGID_00000023978718719169544040000008435999067010054819_" x="10" y="5.6" width="28" height="36.9"/>
			</defs>
			<clipPath id="SVGID_00000035496149711011394560000015115670349144489360_">
				<use xlink:href="#SVGID_00000023978718719169544040000008435999067010054819_"  style="overflow:visible;"/>
			</clipPath>
			<g id="Gruppe_249" style="clip-path:url(#SVGID_00000035496149711011394560000015115670349144489360_);">
				<path id="Pfad_468" class="st5" d="M33,19.4v-4.5c0.1-4.8-3.6-8.9-8.4-9.3c-5-0.3-9.3,3.5-9.6,8.5c0,0.2,0,0.4,0,0.6v4.8h-5v23
					h28v-23L33,19.4z M17,14.6c0-3.9,3.2-7,7.1-6.9c0.5,0,1,0.1,1.5,0.2c3.2,0.8,5.4,3.7,5.4,7v4.6H17V14.6z M36,40.4H12v-19h24
					V40.4z"/>
				<path id="Pfad_469" class="st5" d="M23,30.2v5.3h2v-5.3c1-0.6,1.3-1.8,0.7-2.7c-0.6-1-1.8-1.3-2.7-0.7s-1.3,1.8-0.7,2.7
					C22.4,29.7,22.7,30,23,30.2"/>
			</g>
		</g>
	</g>
</g>
<g id="Ebene_18" class="st0">
	<g id="Gruppe_292" transform="translate(0 0)" class="st1">
		<g>
			<defs>
				<rect id="SVGID_00000121280417462476636940000006773113138556304804_" x="4.5" y="5.6" width="39" height="36.9"/>
			</defs>
			<clipPath id="SVGID_00000170253703209538441550000011918200230046728080_">
				<use xlink:href="#SVGID_00000121280417462476636940000006773113138556304804_"  style="overflow:visible;"/>
			</clipPath>
			<g id="Gruppe_251" style="clip-path:url(#SVGID_00000170253703209538441550000011918200230046728080_);">
				<path id="Pfad_470" class="st5" d="M22.5,19.4v-4.5c0.1-4.8-3.6-8.9-8.4-9.3c-5-0.3-9.3,3.5-9.6,8.5c0,0.2,0,0.4,0,0.6v4.8h2
					v-4.6c0-3.3,2.2-6.2,5.4-7c3.8-0.9,7.5,1.5,8.4,5.2c0.1,0.5,0.2,1,0.2,1.5v4.8h-5v23h28v-23L22.5,19.4z M41.5,40.4h-24v-19h24
					V40.4z"/>
				<path id="Pfad_471" class="st5" d="M28.5,30.2v5.3h2v-5.3c1-0.6,1.3-1.8,0.7-2.7c-0.6-1-1.8-1.3-2.7-0.7s-1.3,1.8-0.7,2.7
					C27.9,29.7,28.2,30,28.5,30.2"/>
			</g>
		</g>
	</g>
</g>
<g id="Ebene_19" class="st0">
	<g class="st1">
		<defs>
			<rect id="SVGID_00000170237898699623292790000005987899041925215872_" x="4.9" y="7" width="38.1" height="34"/>
		</defs>
		<clipPath id="SVGID_00000042006216457599816510000016056759325137041299_">
			<use xlink:href="#SVGID_00000170237898699623292790000005987899041925215872_"  style="overflow:visible;"/>
		</clipPath>
		<g id="Gruppe_253" style="clip-path:url(#SVGID_00000042006216457599816510000016056759325137041299_);">
			<path id="Pfad_472" class="st13" d="M26.1,7c-4.1,0-8,1.5-11.1,4.1l1.1,1.7c6.2-5.5,15.7-4.9,21.2,1.3s4.9,15.7-1.3,21.2
				S20.3,40.2,14.8,34c-2.4-2.7-3.8-6.3-3.8-10h4.5l-5.3-8.7L4.9,24h4.1c0,9.4,7.6,17,17,17s17-7.6,17-17S35.5,7,26.1,7L26.1,7"/>
		</g>
	</g>
</g>
<g id="Ebene_21" class="st0">
	<g class="st1">
		<defs>
			<rect id="SVGID_00000087401592969059720320000012821833688961437841_" x="4.1" y="4" width="40" height="40"/>
		</defs>
		<clipPath id="SVGID_00000049194125873256457810000011668484209994031510_">
			<use xlink:href="#SVGID_00000087401592969059720320000012821833688961437841_"  style="overflow:visible;"/>
		</clipPath>
		<g id="Gruppe_255" style="clip-path:url(#SVGID_00000049194125873256457810000011668484209994031510_);">
			<path id="Pfad_473" class="st29" d="M23.3,16.4v1.5h0.6c0.2,0,0.3,0,0.5,0c0.3,0,0.6,0.1,0.9,0.3l0.6-1.4
				c-0.4-0.2-0.9-0.3-1.3-0.4C24.2,16.4,23.8,16.4,23.3,16.4"/>
			<rect id="Rechteck_213" x="19" y="16.4" class="st30" width="2.4" height="1.5"/>
			<rect id="Rechteck_214" x="14.7" y="16.4" class="st30" width="2.4" height="1.5"/>
			<path id="Pfad_474" class="st29" d="M24.3,25.5L24.2,24c-0.7,0-1.6,0-2.4,0v1.5C22.7,25.5,23.4,25.5,24.3,25.5"/>
			<path id="Pfad_475" class="st29" d="M28.1,22.9l-1.4-0.6c-0.3,0.6-0.7,1-1.2,1.3l0.8,1.3C27.1,24.4,27.8,23.7,28.1,22.9"/>
			<path id="Pfad_476" class="st29" d="M27.6,18.2l-1.2,0.9c0.4,0.5,0.6,1.1,0.6,1.7l1.5-0.1C28.5,19.8,28.2,19,27.6,18.2"/>
			<path id="Pfad_477" class="st29" d="M11.4,25.9L11,24.5c-0.8,0.3-1.7,0.7-2.4,1.2l0.8,1.3C10,26.5,10.7,26.1,11.4,25.9"/>
			<path id="Pfad_478" class="st29" d="M15.6,25.5V24c-0.8,0-1.6,0-2.5,0l0.1,1.5C13.9,25.5,14.8,25.5,15.6,25.5"/>
			<rect id="Rechteck_215" x="17.5" y="24" class="st30" width="2.4" height="1.5"/>
			<path id="Pfad_479" class="st29" d="M5.7,35.6l-1.5,0.3c0.2,0.9,0.5,1.7,0.9,2.5l1.3-0.7C6.1,37,5.9,36.3,5.7,35.6"/>
			<path id="Pfad_480" class="st29" d="M5.9,31.5l-1.4-0.4c-0.3,0.9-0.4,1.7-0.4,2.6l1.5,0C5.6,33,5.7,32.2,5.9,31.5"/>
			<path id="Pfad_481" class="st29" d="M8,28.1l-1.1-1c-0.6,0.6-1.2,1.4-1.6,2.1l1.3,0.7C7,29.2,7.4,28.6,8,28.1"/>
			<rect id="Rechteck_216" x="14.6" y="42.4" class="st30" width="2.4" height="1.5"/>
			<path id="Pfad_482" class="st29" d="M10.6,41.7L10,43.1c0.8,0.4,1.7,0.6,2.6,0.7l0.2-1.5C12,42.2,11.3,42,10.6,41.7"/>
			<path id="Pfad_483" class="st29" d="M7.4,39.3l-1.2,0.9c0.6,0.7,1.2,1.3,1.9,1.8l0.9-1.2C8.4,40.4,7.9,39.8,7.4,39.3"/>
			<rect id="Rechteck_217" x="27.6" y="42.4" class="st30" width="2.4" height="1.5"/>
			<rect id="Rechteck_218" x="23.3" y="42.4" class="st30" width="2.4" height="1.5"/>
			<rect id="Rechteck_219" x="19" y="42.4" class="st30" width="2.4" height="1.5"/>
			<path id="Pfad_484" class="st13" d="M36.2,22.3c-3.9,0-7,3.1-7,7c0,1.2,0.3,2.4,0.8,3.6c1.4,3.5,6.2,11.1,6.2,11.1
				s4.8-7.6,6.2-11.1c0.5-1.1,0.7-2.3,0.8-3.6C43.2,25.4,40.1,22.3,36.2,22.3 M40.6,32.1c-1.3,2.8-2.8,5.4-4.4,8
				c-1.6-2.6-3.1-5.3-4.4-8c-0.4-0.9-0.6-1.8-0.6-2.8c0-2.8,2.2-5,5-5c2.8,0,5,2.2,5,5C41.2,30.3,41,31.2,40.6,32.1"/>
			<path id="Pfad_485" class="st13" d="M9,4c-2.5,0-4.5,2-4.5,4.5l0,0c0,0.8,0.2,1.6,0.5,2.3c1.2,2.4,2.5,4.8,4,7.1
				c1.5-2.3,2.8-4.7,4-7.1c0.3-0.7,0.5-1.5,0.5-2.3C13.5,6.1,11.5,4,9,4"/>
			<path id="Pfad_486" class="st10" d="M44,8h-4V4h-2v4h-4v2h4v4h2v-4h4V8z"/>
		</g>
	</g>
</g>
<g id="Ebene_22" class="st0">
	<g id="Gruppe_296" transform="translate(0 0)" class="st1">
		<g>
			<defs>
				<rect id="SVGID_00000079466715798756425060000001723093795416376505_" x="5.7" y="3.9" width="36.6" height="40.3"/>
			</defs>
			<clipPath id="SVGID_00000103253512225632338150000012539123698172007608_">
				<use xlink:href="#SVGID_00000079466715798756425060000001723093795416376505_"  style="overflow:visible;"/>
			</clipPath>
			<g id="Gruppe_259" style="clip-path:url(#SVGID_00000103253512225632338150000012539123698172007608_);">
				<path id="Pfad_490" class="st30" d="M24,44.1L22,43.4C15.7,41,10.4,36.8,6.8,31.3l-1.1-1.7L5.8,5.7l2,0.1
					c5.4,0.2,10.8-0.4,16-1.8L24,3.9l1.6,0.4c5,1.2,10.1,1.7,15.3,1.5l1.4,0v25.7l-1.3,1.6c-3.5,4.5-8.2,7.9-13.6,9.9L24,44.1z
					 M7.7,28.9l0.8,1.2c3.4,5.2,8.4,9.2,14.2,11.3L24,42l2.7-1c5-1.9,9.4-5.1,12.7-9.3l0.8-1.1V7.7c-5.1,0.1-10.2-0.4-15.2-1.6
					l-1.1-0.3c-5.3,1.4-10.8,2-16.3,1.8L7.7,28.9z"/>
				<path id="Pfad_491" class="st30" d="M30.3,18.7v-3.1c0-3.4-2.8-6.2-6.2-6.2c-3.4,0-6.2,2.8-6.2,6.2v3.1H15v14.8h18V18.7H30.3z
					 M20,15.6c0-2.3,1.8-4.1,4.1-4.1s4.1,1.8,4.1,4.1c0,0,0,0,0,0v3.1H20V15.6z M31,31.5H17V20.7h14V31.5z"/>
			</g>
		</g>
	</g>
</g>
<g id="Ebene_23" class="st0">
	<g id="Gruppe_297" transform="translate(0 0)" class="st1">
		<g>
			<defs>
				<rect id="SVGID_00000026134657951338818660000017559165753095746990_" x="12" y="5.4" width="24" height="37.1"/>
			</defs>
			<clipPath id="SVGID_00000108302166181634043590000007516505360298265743_">
				<use xlink:href="#SVGID_00000026134657951338818660000017559165753095746990_"  style="overflow:visible;"/>
			</clipPath>
			<g id="Gruppe_261" style="clip-path:url(#SVGID_00000108302166181634043590000007516505360298265743_);">
				<path id="Pfad_492" class="st10" d="M24,5.4c-6.6,0-12,5.4-12,12c0.1,2.1,0.5,4.2,1.4,6.1c2.5,6,10.6,19,10.6,19
					s8.2-13.1,10.6-19c0.8-1.9,1.3-4,1.4-6.1C36,10.8,30.6,5.4,24,5.4 M18,28.4v-0.7c0-1.1,0.5-2.2,1.3-3l3.6-2.5h2.2l3.6,2.5
					c0.9,0.8,1.4,1.9,1.4,3v0.7c-2,3.7-4.4,7.7-6,10.3C22.4,36.1,20,32.1,18,28.4 M27.2,17.9c0,1.3-1,2.3-2.3,2.3l0,0h-1.8
					c-1.3,0-2.3-1-2.3-2.3l0,0v-3.2c0-1.3,1-2.3,2.3-2.3l0,0h1.8c1.3,0,2.3,1,2.3,2.3l0,0V17.9z M32.8,22.8
					c-0.3,0.8-0.7,1.7-1.2,2.7c-0.4-0.9-0.9-1.7-1.6-2.3l-2.5-1.8c1.1-0.8,1.8-2.1,1.8-3.5v-3.2c0-2.4-1.9-4.3-4.3-4.3h-1.8
					c-2.4,0-4.3,1.9-4.3,4.3v3.2c0,1.4,0.7,2.7,1.8,3.5l-2.5,1.7L18,23.1c-0.7,0.6-1.3,1.4-1.6,2.3c-0.5-1-0.9-1.9-1.2-2.7
					c-0.7-1.7-1.1-3.5-1.2-5.3c0-5.5,4.5-10,10-10s10,4.5,10,10C33.9,19.3,33.5,21.1,32.8,22.8"/>
			</g>
		</g>
	</g>
</g>
<g id="Ebene_26" class="st0">
	<path id="Pfad_493" class="st33" d="M24,10.9L40.5,39h-33L24,10.9z M24,7L4,41h40L24,7z"/>
	<path id="Pfad_494" class="st33" d="M29.7,29.6l-5.7-9l-5.7,9H23v7.8h2v-7.8H29.7z"/>
</g>
<g id="Ebene_24" class="st0">
	<g class="st1">
		<defs>
			<rect id="SVGID_00000123414722438250637800000013460014515338507927_" x="4" y="4" width="40" height="40"/>
		</defs>
		<clipPath id="SVGID_00000049201487176629750390000009612538591912548255_">
			<use xlink:href="#SVGID_00000123414722438250637800000013460014515338507927_"  style="overflow:visible;"/>
		</clipPath>
		<g id="Gruppe_264" style="clip-path:url(#SVGID_00000049201487176629750390000009612538591912548255_);">
			<path id="Pfad_495" class="st13" d="M24,4C13,4,4,13,4,24s9,20,20,20s20-9,20-20C44,13,35,4,24,4 M24,42c-9.9,0-18-8.1-18-18
				S14.1,6,24,6s18,8.1,18,18C42,33.9,33.9,42,24,42"/>
			<path id="Pfad_496" class="st13" d="M27.1,24.9l0,1.4l0,0l-0.8-1.2l-5.4-7.9h-2.2v13.5h2.2v-8l0-1.5l0,0l0.8,1.2l5.8,8.2h1.7
				V17.3h-2.2L27.1,24.9z"/>
		</g>
	</g>
</g>
<g id="Ebene_25" class="st0">
	<g class="st1">
		<defs>
			<rect id="SVGID_00000011745207669955423590000009638568871038021802_" x="4" y="4" width="40" height="40"/>
		</defs>
		<clipPath id="SVGID_00000174599677359967264320000004997835046250577592_">
			<use xlink:href="#SVGID_00000011745207669955423590000009638568871038021802_"  style="overflow:visible;"/>
		</clipPath>
		<g id="Gruppe_266" style="clip-path:url(#SVGID_00000174599677359967264320000004997835046250577592_);">
			<path id="Pfad_497" class="st18" d="M24,4C13,4,4,13,4,24s9,20,20,20s20-9,20-20C44,13,35,4,24,4 M24,42c-9.9,0-18-8.1-18-18
				S14.1,6,24,6s18,8.1,18,18C42,33.9,33.9,42,24,42"/>
			<path id="Pfad_498" class="st18" d="M24,36c-6.4,0-11.5-5.1-11.5-11.5S17.6,13,24,13s11.5,5.1,11.5,11.5V26H15.6
				c0.8,4.6,5.2,7.7,9.9,6.9c2.8-0.5,5.1-2.3,6.3-4.9l2.7,1.2C32.6,33.3,28.5,36,24,36 M15.6,23h16.7c-0.8-4.6-5.2-7.7-9.9-6.9
				C19,16.8,16.3,19.5,15.6,23"/>
		</g>
	</g>
</g>
<g id="Ebene_27" class="st0">
	<rect id="Rechteck_226" x="34" y="7.6" class="st11" width="2" height="32.8"/>
	<path id="Pfad_499" class="st11" d="M14,12.4L25.6,24L14,35.6V12.4z M12,7.6v32.8L28.4,24L12,7.6z"/>
</g>
<g id="Ebene_28" class="st0">
	<g class="st1">
		<defs>
			<rect id="SVGID_00000064330985567516720320000009497461723979057584_" x="6" y="6" width="36" height="36"/>
		</defs>
		<clipPath id="SVGID_00000160150340467505701520000012339991698075571897_">
			<use xlink:href="#SVGID_00000064330985567516720320000009497461723979057584_"  style="overflow:visible;"/>
		</clipPath>
		<g id="Gruppe_269" style="clip-path:url(#SVGID_00000160150340467505701520000012339991698075571897_);">
			<path id="Pfad_500" class="st5" d="M24,6C14.1,6,6,14.1,6,24s8.1,18,18,18s18-8.1,18-18S33.9,6,24,6 M24,40c-8.8,0-16-7.2-16-16
				S15.2,8,24,8s16,7.2,16,16C40,32.8,32.8,40,24,40"/>
			<rect id="Rechteck_227" x="23" y="14" class="st5" width="2" height="20"/>
		</g>
	</g>
</g>
<g id="Ebene_29" class="st0">
	<path id="Pfad_548" class="st37" d="M20,40h8v2h-8V40z M28,25.4V33h-7.6L28,25.4z M20,28.4l8-8v2.2l-8,8V28.4z M20,20.4l8-8v5.2
		l-8,8V20.4z M20,15.4l8-8v2.2l-8,8V15.4z M20,6h6.6L20,12.6V6z M18,4v31h5v3h-5v6h12v-6h-5v-3h5V4H18z"/>
</g>
<g id="Ebene_30" class="st0">
	<g id="Gruppe_303" transform="translate(0 0)" class="st1">
		<g>
			<defs>
				<rect id="SVGID_00000057135683036277897340000014470030228437311935_" x="4.7" y="4.7" width="38.6" height="38.6"/>
			</defs>
			<clipPath id="SVGID_00000141457947063357407850000017208840066626472855_">
				<use xlink:href="#SVGID_00000057135683036277897340000014470030228437311935_"  style="overflow:visible;"/>
			</clipPath>
			<g id="Gruppe_272" style="clip-path:url(#SVGID_00000141457947063357407850000017208840066626472855_);">
				<path id="Pfad_501" class="st13" d="M43.3,8.7c0-2.2-1.8-4-4-4c-1.1,0-2.1,0.4-2.9,1.2L29,13.4L11.1,9.5l-4.9,4.9l15.4,6.4
					l-5.8,5.8H9l-4.3,4.3l8.5,3.9l4,8.5l4.3-4.3v-6.8l5.8-5.8l6.4,15.4l4.9-4.9L34.6,19l7.5-7.5C42.9,10.8,43.3,9.8,43.3,8.7
					 M40.7,10.1l-8.3,8.3l3.9,17.9l-2.1,2.1l-6.4-15.4l-8.5,8.5v6.8l-1.7,1.7l-3.1-6.5l-6.5-3.1l1.7-1.7h6.8l8.5-8.5L9.7,13.7
					l2.1-2.1l17.9,3.9l8.3-8.3c0.8-0.8,2-0.8,2.8,0C41.5,8.1,41.5,9.3,40.7,10.1C40.7,10.1,40.7,10.1,40.7,10.1"/>
			</g>
		</g>
	</g>
</g>
<g id="Ebene_31" class="st0">
	<g id="Gruppe_304" transform="translate(0 0)" class="st1">
		<path id="Pfad_502" class="st10" d="M24,7L9.5,14.8l0.9,1.8L24,9.3l13,7v22.9H11v-19H9v21h30v-26L24,7z"/>
		<path id="Pfad_503" class="st10" d="M18,26.9h3.7l-1.8,7.8l8-11.6h-3.6l1.8-7.4L18,26.9z"/>
	</g>
</g>
<g id="Ebene_32" class="st0">
	<path id="Pfad_547" class="st11" d="M22.5,31l-2-2.3v-4h7v4l-2,2.3v2.1h-3V31z M24,7L9,15.1v26h16v-6h2.5v-3.4l2-2.3v-6.8H27v-2.5
		h-2v2.5h-2v-2.5h-2v2.5h-2.5v6.8l2,2.3v3.4H23v4H11V16.3l13-7l13,7v22.9h-5v2h7v-26L24,7z"/>
</g>
<g id="Ebene_33" class="st0">
	<g class="st1">
		<defs>
			<rect id="SVGID_00000139254321826168502710000008918677989796613265_" x="5.3" y="4.7" width="37.4" height="38.7"/>
		</defs>
		<clipPath id="SVGID_00000106117332101735451250000010586910001417971878_">
			<use xlink:href="#SVGID_00000139254321826168502710000008918677989796613265_"  style="overflow:visible;"/>
		</clipPath>
		<g id="Gruppe_275" style="clip-path:url(#SVGID_00000106117332101735451250000010586910001417971878_);">
			<path id="Pfad_505" class="st13" d="M7.7,10.6c0.3-0.1,0.7-0.2,1.1-0.2c0.4,0,0.8,0.1,1.2,0.3c0.2,0.2,0.4,0.5,0.4,0.8
				c0,0.4-0.1,0.7-0.3,1c-0.2,0.4-0.5,0.8-0.9,1.1c-0.4,0.4-0.8,0.8-1.2,1.3c-0.5,0.4-1,0.9-1.5,1.4v1h5.4l0-1.3H8.4v0
				c0.5-0.4,1-0.8,1.4-1.2c0.4-0.4,0.8-0.7,1.1-1.1c0.3-0.3,0.5-0.7,0.7-1.1c0.2-0.4,0.3-0.8,0.3-1.1c0-0.6-0.2-1.3-0.7-1.7
				C10.6,9.2,9.8,8.9,9.1,9c-0.5,0-1,0.1-1.5,0.2C7.1,9.4,6.7,9.6,6.4,9.9l0.4,1.2C7,10.9,7.4,10.7,7.7,10.6"/>
			<path id="Pfad_506" class="st13" d="M17,15.7v1.7h1.4v-1.7h0.9l0-1.3h-0.9V9.1h-1.8l-3.4,5.6l0.1,1L17,15.7z M15.2,13.6l1.5-2.4
				l0.5-0.8l0,0l0,0.9l-0.1,3.1h-2.3l0,0L15.2,13.6z"/>
			<path id="Pfad_507" class="st13" d="M38.5,19.9c2.4-2.4,3.2-6.1,2.1-9.3l-0.5-1.5l-5,5c-1,0.9-2.5,0.8-3.4-0.2
				c-0.8-0.9-0.8-2.3,0-3.2l5-5l-1.5-0.5c-4.6-1.7-9.8,0.8-11.4,5.4c-0.6,1.7-0.7,3.6-0.2,5.4l-17,17c-1.7,1.7-1.7,4.5,0,6.2
				c0.2,0.2,0.5,0.4,0.7,0.6c0.7,0.5,1.5,0.7,2.4,0.7c1.2,0,2.4-0.5,3.2-1.3l16.9-16.9C32.9,23.1,36.2,22.2,38.5,19.9 M11.5,37.7
				c-0.8,0.8-2.1,1-3.1,0.4c-1.1-0.7-1.4-2.2-0.7-3.3c0.1-0.1,0.2-0.3,0.3-0.4l17.9-17.9l-0.2-0.6c-1.3-3.6,0.6-7.6,4.2-8.9
				c0.8-0.3,1.6-0.4,2.4-0.4c0.2,0,0.4,0,0.7,0l-2.6,2.6c-1.7,1.7-1.7,4.5,0,6.2s4.5,1.7,6.2,0l2.6-2.6c0.4,3.8-2.4,7.2-6.2,7.6
				c-1,0.1-2.1,0-3-0.4l-0.6-0.2L11.5,37.7z"/>
			<path id="Pfad_508" class="st13" d="M42.7,23.8h-2c0,7.4-5.9,13.3-13.3,13.5v-4.5L18.8,38l8.7,5.3v-4.1
				C35.9,39.1,42.7,32.2,42.7,23.8"/>
		</g>
	</g>
</g>
<g id="Ebene_36" class="st0">
	<g class="st1">
		<defs>
			<rect id="SVGID_00000005250716473218093040000014364149150967787933_" x="4" y="4" width="40" height="40"/>
		</defs>
		<clipPath id="SVGID_00000052073443506242991380000009490309254018439574_">
			<use xlink:href="#SVGID_00000005250716473218093040000014364149150967787933_"  style="overflow:visible;"/>
		</clipPath>
		<g id="Gruppe_277" style="clip-path:url(#SVGID_00000052073443506242991380000009490309254018439574_);">
			<path id="Pfad_509" class="st18" d="M24,44C13,44,4,35,4,24S13,4,24,4s20,9,20,20C44,35,35,44,24,44 M24,6C14.1,6,6,14.1,6,24
				s8.1,18,18,18s18-8.1,18-18C42,14.1,33.9,6,24,6"/>
			<path id="Pfad_510" class="st13" d="M24.4,30.8H19V17.3h5.2c2.8,0,4.2,1.2,4.2,3.4c0.1,1.3-0.6,2.5-1.8,2.9v0
				c1.5,0.3,2.5,1.7,2.3,3.2C29,29.3,27.7,30.8,24.4,30.8 M24.2,19.4h-2.8v3.5h2.9c1.3,0,1.8-0.6,1.8-1.8
				C26.1,19.9,25.5,19.4,24.2,19.4 M24.4,24.8h-3v3.9h3c1.4,0,2.1-0.5,2.1-2C26.5,25.3,25.9,24.8,24.4,24.8"/>
		</g>
	</g>
</g>
<g id="Ebene_34" class="st0">
	<g class="st1">
		<defs>
			<rect id="SVGID_00000063609644764515801720000006698219204032930479_" x="9" y="4" width="30" height="40"/>
		</defs>
		<clipPath id="SVGID_00000046324276584553479760000013245988052534991038_">
			<use xlink:href="#SVGID_00000063609644764515801720000006698219204032930479_"  style="overflow:visible;"/>
		</clipPath>
		
			<g id="Gruppe_279_00000098902099399009151660000005176226876423210128_" style="clip-path:url(#SVGID_00000046324276584553479760000013245988052534991038_);">
			<path id="Pfad_511" class="st5" d="M29.5,20.7v-5.3c0-2.6-1.9-4.9-4.5-5.4V9h-2v1.1c-2.6,0.5-4.5,2.7-4.5,5.4v5.3l-2.7,4.8h5.3
				c0.3,1.6,1.8,2.7,3.4,2.5c1.3-0.2,2.3-1.2,2.5-2.5h5.3L29.5,20.7z M24,26c-0.4,0-0.7-0.2-0.8-0.5h1.7C24.7,25.8,24.4,26,24,26
				 M26.6,23.5h-7.4l1.3-2.2v-5.8c0-1.9,1.6-3.5,3.5-3.5s3.5,1.6,3.5,3.5v5.8l1.3,2.2L26.6,23.5z"/>
			<path id="Pfad_512" class="st10" d="M39,44H9V4h22.4l7.6,6.4V44z M11,42h26V11.3L30.6,6H11V42z"/>
			<rect id="Rechteck_232" x="15" y="36" class="st5" width="18" height="2"/>
			<rect id="Rechteck_233" x="15" y="32" class="st5" width="18" height="2"/>
		</g>
	</g>
</g>
<g id="Ebene_35" class="st0">
	<g id="Gruppe_308" transform="translate(0 0)" class="st1">
		<g>
			<defs>
				<rect id="SVGID_00000132781100665367506160000001663235541879312019_" x="4.5" y="5.1" width="38.9" height="37.4"/>
			</defs>
			<clipPath id="SVGID_00000088851682243073877710000017990829201457929908_">
				<use xlink:href="#SVGID_00000132781100665367506160000001663235541879312019_"  style="overflow:visible;"/>
			</clipPath>
			<g id="Gruppe_281" style="clip-path:url(#SVGID_00000088851682243073877710000017990829201457929908_);">
				<path id="Pfad_513" class="st10" d="M29.7,25.1c4.3-4.9,3.9-12.4-1.1-16.8S16.2,4.5,11.9,9.4S8,21.8,12.9,26.1
					c4.3,3.8,10.8,4,15.3,0.3l13.8,13.3l1.4-1.4L29.7,25.1z M10.8,17.1c0-5.5,4.5-10,10-10s10,4.5,10,10s-4.5,10-10,10
					C15.2,27.1,10.8,22.6,10.8,17.1"/>
				<path id="Pfad_514" class="st10" d="M35.2,40.5H9.3l5.9-6H30v-2H14.4l-9.9,10h31.5l1.6-1.6l-1.4-1.4L35.2,40.5z"/>
			</g>
		</g>
	</g>
</g>
<g id="Ebene_39" class="st0">
	<g id="Gruppe_309" transform="translate(0 0)" class="st1">
		<g>
			<defs>
				<rect id="SVGID_00000178197081648378369110000014252035680918785214_" x="10" y="5.6" width="28" height="36.9"/>
			</defs>
			<clipPath id="SVGID_00000044880201381993063930000006809052100499882669_">
				<use xlink:href="#SVGID_00000178197081648378369110000014252035680918785214_"  style="overflow:visible;"/>
			</clipPath>
			<g id="Gruppe_283" style="clip-path:url(#SVGID_00000044880201381993063930000006809052100499882669_);">
				<path id="Pfad_515" class="st30" d="M33.1,19.4v-4.8c0-5-4.1-9.1-9.1-9.1s-9.1,4.1-9.1,9.1v4.8H10v23h28v-23L33.1,19.4z
					 M17.1,14.6c0-3.8,3.1-6.9,6.9-6.9s6.9,3.1,6.9,6.9c0,0,0,0,0,0v4.8H17.1V14.6z M36,40.4H12v-19h24V40.4z"/>
				<path id="Pfad_516" class="st30" d="M19,29.4c1.1,0,2-0.9,2-2s-0.9-2-2-2c-1.1,0-2,0.9-2,2S17.9,29.4,19,29.4"/>
				<path id="Pfad_517" class="st30" d="M29,29.4c1.1,0,2-0.9,2-2s-0.9-2-2-2s-2,0.9-2,2S27.9,29.4,29,29.4"/>
				<path id="Pfad_518" class="st30" d="M24,37.4c2.7,0,5.3-1.2,7-3.4l-1.6-1.3c-2.4,3-6.8,3.5-9.8,1.1c-0.4-0.3-0.8-0.7-1.1-1.1
					L17,34.1C18.7,36.2,21.3,37.4,24,37.4"/>
			</g>
		</g>
	</g>
</g>
<g id="Ebene_37" class="st0">
	<g class="st1">
		<defs>
			<rect id="SVGID_00000119116107872420160820000004035428090404117133_" x="9.3" y="6" width="29.4" height="36"/>
		</defs>
		<clipPath id="SVGID_00000165939726672482871180000007169885961874315906_">
			<use xlink:href="#SVGID_00000119116107872420160820000004035428090404117133_"  style="overflow:visible;"/>
		</clipPath>
		<g id="Gruppe_285" style="clip-path:url(#SVGID_00000165939726672482871180000007169885961874315906_);">
			<path id="Pfad_519" class="st5" d="M34,28.7V17.9c0-5.1-3.9-9.4-9-9.9V6h-2v2c-5.1,0.5-9,4.7-9,9.9v10.8L9.3,37H19
				c0,2.8,2.2,5,5,5c2.8,0,5-2.2,5-5h9.7L34,28.7z M26.2,35H12.7l3.3-5.7V17.9c0-4.4,3.5-7.9,7.9-7.9h0.2c4.4,0,7.9,3.5,7.9,7.9
				v11.4l3.3,5.7H26.2z M24,40c-1.7,0-3-1.3-3-3h6C27,38.7,25.7,40,24,40"/>
		</g>
	</g>
</g>
<g id="Ebene_38" class="st0">
	<g id="Gruppe_311" transform="translate(0 0)" class="st1">
		<g>
			<defs>
				<rect id="SVGID_00000172425019839639349840000011036678057497612443_" x="5" y="7.1" width="38" height="33.8"/>
			</defs>
			<clipPath id="SVGID_00000096049657022144671200000004848705680989557668_">
				<use xlink:href="#SVGID_00000172425019839639349840000011036678057497612443_"  style="overflow:visible;"/>
			</clipPath>
			<g id="Gruppe_287" style="clip-path:url(#SVGID_00000096049657022144671200000004848705680989557668_);">
				<path id="Pfad_520" class="st5" d="M39.1,7.1H18.9C16.8,7.1,15,8.8,15,11v4.1H8.9C6.8,15.1,5,16.8,5,19v21.9l5.8-5.8h18.3
					c2.2,0,3.9-1.8,3.9-3.9c0,0,0,0,0,0v-4.1h4.2l5.8,5.8V11C43,8.8,41.2,7.1,39.1,7.1 M31,31.2c0,1.1-0.9,1.9-1.9,1.9H9.9l-0.6,0.6
					L7,36V19c0-1.1,0.9-1.9,1.9-1.9h20.1c1.1,0,1.9,0.9,1.9,1.9V31.2z M41,21.2V28l-2.3-2.4l-0.6-0.6H33V19c0-2.2-1.8-3.9-3.9-3.9
					H17V11c0-1.1,0.9-1.9,1.9-1.9h20.1c1.1,0,1.9,0.9,1.9,1.9V21.2z"/>
			</g>
		</g>
	</g>
</g>
<g id="Ebene_42" class="st0">
	<g id="Gruppe_312" transform="translate(0 0)" class="st1">
		<g>
			<defs>
				<rect id="SVGID_00000005257615434905813240000014818956881512780461_" x="7" y="4.1" width="33.9" height="40"/>
			</defs>
			<clipPath id="SVGID_00000017499278377314516320000008280051315252651413_">
				<use xlink:href="#SVGID_00000005257615434905813240000014818956881512780461_"  style="overflow:visible;"/>
			</clipPath>
			<g id="Gruppe_289" style="clip-path:url(#SVGID_00000017499278377314516320000008280051315252651413_);">
				<path id="Pfad_521" class="st13" d="M24.8,8c0,0-0.1,0-0.1,0V4.1L16.6,9l8.1,4.9V10c0,0,0.1,0,0.1,0c6.6,0,12.5,4.4,14.3,10.8
					l1.9-0.5C38.9,13.1,32.3,8.1,24.8,8"/>
				<path id="Pfad_522" class="st18" d="M34.1,27.4L22,16.1c-0.4-0.4-0.9-0.6-1.5-0.6c-0.5,0-1.1,0.2-1.4,0.6l-6.1,6.6l1.5,1.4
					l6.2-6.6l7.1,6.6l5.1,4.8l-0.5,0.6c-1.9-1.2-4.1-1.8-6.4-1.7c-1,0.1-1.7,0.3-6.7,2.2l-1.6,0.6C14.3,31.8,13.9,32,13,32
					c-1.5,0-3.1-0.3-4.4-1.1c-0.5-0.2-1.1-0.1-1.4,0.3c-0.3,0.4-0.3,1.1,0.2,1.4L19,43.5c0.4,0.4,0.9,0.6,1.4,0.6h0.1
					c0.5,0,1.1-0.3,1.4-0.7l11.2-12l0,0l0,0l0,0l1.1-1.2C35,29.5,35,28.2,34.1,27.4"/>
			</g>
		</g>
	</g>
</g>
<g id="Ebene_40" class="st0">
	<g id="Gruppe_313" transform="translate(0 0)" class="st1">
		<g>
			<defs>
				<rect id="SVGID_00000097484441239405032350000002085882792750916009_" x="6.9" y="4.1" width="34.1" height="40"/>
			</defs>
			<clipPath id="SVGID_00000066511468787021562330000001463284966453082558_">
				<use xlink:href="#SVGID_00000097484441239405032350000002085882792750916009_"  style="overflow:visible;"/>
			</clipPath>
			
				<g id="Gruppe_291_00000154408732806308692830000009699812335941701262_" style="clip-path:url(#SVGID_00000066511468787021562330000001463284966453082558_);">
				<path id="Pfad_523" class="st10" d="M29.2,22.7l-7.1-6.6c-0.4-0.4-0.9-0.6-1.5-0.6c-0.5,0-1.1,0.2-1.4,0.7L13,22.7l1.5,1.4
					l6.2-6.6l7.1,6.6l5.1,4.8L20.5,42.1l-5.1-4.7l0,0l-7.2-6.7l-1.4,1.5l7.7,7.2l0,0l4.5,4.2c0.4,0.4,0.9,0.6,1.4,0.6
					c0.6,0,1.1-0.2,1.5-0.6l12.3-13.1c0.4-0.4,0.6-0.9,0.5-1.5c0-0.5-0.3-1.1-0.7-1.4L29.2,22.7z"/>
				<path id="Pfad_524" class="st10" d="M24.9,8c0,0-0.1,0-0.1,0V4.1L16.7,9l8.1,4.9V10c0,0,0.1,0,0.1,0c6.6,0,12.5,4.4,14.3,10.8
					l1.9-0.5C39,13.1,32.4,8,24.9,8"/>
				<path id="Pfad_525" class="st10" d="M20.4,38.1c0.3,0.1,0.5,0.1,0.8,0c0.8-0.2,1.4-0.8,1.6-1.6c0.1-0.3,0.1-0.5,0-0.8
					c-0.2-1.1-1.3-1.8-2.4-1.6s-1.8,1.3-1.6,2.4C19,37.3,19.6,37.9,20.4,38.1"/>
				<path id="Pfad_526" class="st10" d="M15.4,33.7c1.1,0.2,2.1-0.5,2.4-1.6c0.2-1.1-0.5-2.1-1.6-2.4c-1.1-0.2-2.1,0.5-2.4,1.6
					c-0.1,0.3-0.1,0.5,0,0.8C14,32.9,14.6,33.6,15.4,33.7"/>
				<path id="Pfad_527" class="st10" d="M25.4,33.7c1.1,0.2,2.1-0.5,2.4-1.6c0.2-1.1-0.5-2.1-1.6-2.4c-1.1-0.2-2.1,0.5-2.4,1.6
					c-0.1,0.3-0.1,0.5,0,0.8C24,32.9,24.6,33.6,25.4,33.7"/>
			</g>
		</g>
	</g>
</g>
<g id="Ebene_41" class="st0">
	<g id="Gruppe_322" transform="translate(0 0)" class="st1">
		<g>
			<defs>
				<rect id="SVGID_00000086664171671488494560000013947000384530836413_" x="10.6" y="5.4" width="26.8" height="37.1"/>
			</defs>
			<clipPath id="SVGID_00000149376591100395637620000009465105990532082068_">
				<use xlink:href="#SVGID_00000086664171671488494560000013947000384530836413_"  style="overflow:visible;"/>
			</clipPath>
			
				<g id="Gruppe_309_00000045583755418316000330000006959714584172830852_" style="clip-path:url(#SVGID_00000149376591100395637620000009465105990532082068_);">
				<path id="Pfad_545_00000085239062568336637220000016505127134491098811_" class="st30" d="M33,24.1c-0.6-0.3-1.2-0.5-1.9-0.7
					c-4.3-1-8.6,1.8-9.5,6.1c-0.7,3.4,0.8,6.8,3.7,8.6c3.8,2.3,8.7,1.1,11-2.7s1.1-8.7-2.7-11C33.4,24.4,33.2,24.3,33,24.1
					 M29.4,37.3c-1.1,0-2.2-0.3-3.1-0.9c-0.6-0.3-1.1-0.8-1.5-1.3c-2.1-2.6-1.7-6.3,0.8-8.4c1.1-0.9,2.4-1.4,3.8-1.4
					c0.3,0,0.5,0,0.8,0.1c3.3,0.5,5.6,3.5,5.1,6.8C34.9,35.1,32.4,37.3,29.4,37.3"/>
				<path id="Pfad_546_00000071546034609452095330000018386187301809784487_" class="st15" d="M31.7,28.6l-2,2l-1.2,1.2l-1.1-1.1
					l-0.2-0.2l-1.4,1.4l0.6,0.6l1.5,1.5l0.7,0.7l4.6-4.6L31.7,28.6z"/>
				<path id="Pfad_547_00000093142066398023562440000011018235485446515855_" class="st13" d="M22.4,11.3c-3.3,0-6,2.7-6,6
					s2.7,6,6,6c3.3,0,6-2.7,6-6C28.4,14,25.7,11.3,22.4,11.3 M22.4,21.3c-2.2,0-4-1.8-4-4s1.8-4,4-4s4,1.8,4,4S24.6,21.3,22.4,21.3"
					/>
				<path id="Pfad_548_00000018923815268492455020000016622597266246702519_" class="st10" d="M22.6,5.4c-6.6,0-12,5.4-12,12
					c0.1,2.1,0.5,4.2,1.4,6.1c2.5,6,10.6,19,10.6,19s0.4-0.7,1.2-1.9l-1.5-2.5h0c-0.7-1.2-1.6-2.6-2.5-4.1c-2.2-3.6-4.2-7.4-6-11.3
					c-0.7-1.7-1.1-3.5-1.2-5.3c0-5.5,4.5-10,10-10s10,4.5,10,10c0,1.4-0.3,2.8-0.8,4.2c0.6,0.2,1.3,0.4,1.9,0.7
					c0.5-1.6,0.8-3.2,0.9-4.8C34.6,10.8,29.2,5.4,22.6,5.4"/>
			</g>
		</g>
	</g>
</g>
<g id="Ebene_43" class="st0">
	<g class="st1">
		<defs>
			<rect id="SVGID_00000119084461053650603160000016108147092256651149_" x="5" y="5" width="38" height="38"/>
		</defs>
		<clipPath id="SVGID_00000039113880881641574620000003755939212839350171_">
			<use xlink:href="#SVGID_00000119084461053650603160000016108147092256651149_"  style="overflow:visible;"/>
		</clipPath>
		
			<g id="Gruppe_311_00000014612665838548359190000007950908470143078785_" style="clip-path:url(#SVGID_00000039113880881641574620000003755939212839350171_);">
			<path id="Pfad_549" class="st50" d="M24,5C13.5,5,5,13.5,5,24s8.5,19,19,19s19-8.5,19-19C43,13.5,34.5,5,24,5 M24,41
				c-9.4,0-17-7.6-17-17S14.6,7,24,7s17,7.6,17,17C41,33.4,33.4,41,24,41"/>
			<path id="Pfad_550" class="st50" d="M18.7,30.9l-7.3-7.1L10,25.3l8.7,8.4L36,16.4L34.6,15L18.7,30.9z"/>
		</g>
	</g>
</g>
<g id="Ebene_43_Kopie" class="st0">
	<g class="st1">
		<defs>
			<rect id="SVGID_00000166652008183797119120000017798186386774976905_" x="5" y="5" width="38" height="38"/>
		</defs>
		<clipPath id="SVGID_00000023270364724834125810000009785723983595314310_">
			<use xlink:href="#SVGID_00000166652008183797119120000017798186386774976905_"  style="overflow:visible;"/>
		</clipPath>
		
			<g id="Gruppe_311_00000147207336148272961650000008230580898942454181_" style="clip-path:url(#SVGID_00000023270364724834125810000009785723983595314310_);">
			<path id="Pfad_550_00000118398461423583079980000000133114420431871395_" class="st50" d="M18.7,30.9l-7.3-7.1L10,25.3l8.7,8.4
				L36,16.4L34.6,15L18.7,30.9z"/>
		</g>
	</g>
</g>
<g id="Ebene_44" class="st0">
	<g id="Gruppe_376" transform="translate(3993 5203)" class="st1">
		<path id="Pfad_575" class="st5" d="M-3950.4-5190.7h-19.3l-4.5-4.7c-0.1-0.2-0.4-0.2-0.6-0.2h-12.9c-0.4,0-0.8,0.3-0.8,0.7
			c0,0,0,0.1,0,0.1v31.7c0,0.4,0.3,0.8,0.7,0.8c0,0,0.1,0,0.1,0h37.2c0.4,0,0.8-0.3,0.8-0.7c0,0,0-0.1,0-0.1v-26.8
			C-3949.5-5190.3-3949.9-5190.7-3950.4-5190.7C-3950.3-5190.7-3950.3-5190.7-3950.4-5190.7L-3950.4-5190.7z M-3975.2-5194.1
			l4.5,4.7c0.1,0.2,0.4,0.2,0.6,0.2h18.9v4.5h-35.6v-9.4L-3975.2-5194.1z M-3986.8-5163.9v-19.1h35.6v19L-3986.8-5163.9
			L-3986.8-5163.9z"/>
	</g>
</g>
<g id="Ebene_45">
</g>
</svg>
